# xmcd
#
# Track frame offsets:
#	150
#	30728
#	55575
#	57602
#	88208
#
# Disc length: 1247 seconds
#
# Revision: 0
# Processed by: cddbd v1.5.2PL0 Copyright (c) Steve Scherf et al.
# Submitted via: dBpowerAMP V4.0
#
DISCID=3f04dd05
DTITLE=Flotation Toy Warning - The Special Tape 
DYEAR=2002
DGENRE=Indie
TTITLE0=Popstar Researching Oblivion
TTITLE1=Live From The Lake In The Sky
TTITLE2=French Kids
TTITLE3=Best Boy Electric
TTITLE4=Untitled
EXTD=It's an EP, purchased from Amazon recently, so very much real, but I guess rare (obscure band).\nAnton Wilson
EXTT0=
EXTT1=
EXTT2=
EXTT3=
EXTT4=
PLAYORDER=
